<?xml version="1.0" standalone="no"?>
<!DOCTYPE svg PUBLIC "-//W3C//DTD SVG 20010904//EN"
 "http://www.w3.org/TR/2001/REC-SVG-20010904/DTD/svg10.dtd">
<svg version="1.0" xmlns="http://www.w3.org/2000/svg"
 width="1280.000000pt" height="1280.000000pt" viewBox="0 0 1280.000000 1280.000000"
 preserveAspectRatio="xMidYMid meet">
<g transform="translate(0.000000,1280.000000) scale(0.100000,-0.100000)"
fill="#000000" stroke="none">
<path d="M2060 12200 c-159 -16 -307 -61 -450 -137 -118 -63 -202 -127 -301
-230 -163 -170 -264 -362 -316 -603 -17 -82 -18 -263 -18 -4455 0 -4192 1
-4373 18 -4455 71 -328 257 -606 525 -784 103 -69 328 -181 433 -216 90 -31
225 -57 369 -72 184 -19 7976 -19 8160 0 144 15 279 41 369 72 105 35 330 147
433 216 268 178 454 456 525 784 17 82 18 263 18 4455 0 4192 -1 4373 -18
4455 -52 241 -153 433 -316 603 -174 181 -368 290 -626 350 l-90 22 -4320 1
c-2376 1 -4354 -2 -4395 -6z"/>
</g>
</svg>
